# WaveFront *.obj file (generated by CINEMA 4D)

mtllib ./EthereumDiamond-Whole.mtl

v -100 84.97252655029297 -100
v 100 84.97252655029297 -100
v 100 84.97252655029297 100
v -100 84.97252655029297 100
v 0 -164.11953735351562 0.00000000000002
# 5 vertices

vn 0 1 0
vn 0.92800939083099 -0.37255677580833 0
vn 0 0 0
vn 0 -0.37255677580833 0.92800939083099
vn -0.92800939083099 -0.37255677580833 0
vn 0 -0.37255677580833 -0.92800939083099
# 6 normals

vt 0.79999995231628 0.5 0
vt 0.5 0.80000001192093 0
vt 0.19999998807907 0.5 0
vt 0.5 0.20000004768372 0
vt 0 1 0
vt 0 0 0
vt 1 0 0
vt 1 1 0
# 8 texture coordinates

o Pyramid.1
usemtl Mat.1
f 4/4/1 3/3/1 2/2/1 1/1/1

usemtl Mat
f 2/2/2 3/3/2 5/5/2
f 3/3/4 4/4/4 5/6/4
f 4/4/5 1/1/5 5/7/5
f 1/1/6 2/2/6 5/8/6

v -100 130.2344970703125 100
v 100 130.2344970703125 100
v 100 130.2344970703125 -100
v -100 130.2344970703125 -100
v 0 381.83090209960938 0
# 5 vertices

vn 0 -1 0
vn 0.92928779125214 0.3693565428257 0
vn 0 0.3693565428257 -0.92928779125214
vn -0.92928779125214 0.3693565428257 0
vn 0 0.3693565428257 0.92928779125214
# 5 normals

# 0 texture coordinate

o Pyramid
usemtl Mat.2
f 9/4/7 8/3/7 7/2/7 6/1/7
f 7/2/8 8/3/8 10/5/8
f 8/3/9 9/4/9 10/6/9
f 9/4/10 6/1/10 10/7/10
f 6/1/11 7/2/11 10/8/11

